<svg xmlns="http://www.w3.org/2000/svg" viewBox="0 0 303.6 45.4"><g fill="red"><path d="M27.2 8.6c-.2.5-.5.8-.8 1-.3.2-.6.3-1.1.3-.4 0-.9-.2-1.4-.5-.5-.3-1.1-.7-1.8-1.1-.7-.4-1.5-.7-2.4-1.1s-2-.5-3.3-.5c-1.1 0-2.1.1-3 .4-.8.3-1.6.7-2.1 1.2-.6.5-1 1.1-1.3 1.8-.3.7-.4 1.4-.4 2.3 0 1 .3 1.9.9 2.6.6.7 1.4 1.3 2.3 1.8 1 .5 2.1.9 3.3 1.3 1.2.4 2.5.8 3.8 1.2 1.3.4 2.5 1 3.8 1.5 1.2.6 2.3 1.3 3.3 2.2 1 .9 1.7 2 2.3 3.3s.7 2.8.7 4.7c0 2-.3 3.9-1 5.6-.7 1.8-1.7 3.3-3 4.6-1.3 1.3-2.9 2.3-4.8 3.1-1.9.7-4.1 1.1-6.5 1.1-1.4 0-2.8-.1-4.2-.4-1.4-.3-2.7-.7-3.9-1.2-1.3-.5-2.4-1.1-3.5-1.8S1 40.5.2 39.6l2.4-4c.2-.3.5-.5.8-.7s.7-.3 1.1-.3c.5 0 1.1.2 1.7.6.6.4 1.3.9 2.1 1.4s1.8 1 2.9 1.4c1.1.4 2.4.6 3.9.6 2.4 0 4.2-.6 5.5-1.7 1.3-1.1 1.9-2.7 1.9-4.8 0-1.2-.3-2.1-.9-2.9-.6-.7-1.4-1.4-2.3-1.9-1-.5-2.1-.9-3.3-1.3-1.2-.3-2.5-.7-3.7-1.1-1.3-.4-2.5-.9-3.7-1.5S5.9 22.2 5 21.3c-1-.9-1.7-2.1-2.3-3.5-.6-1.4-.9-3.1-.9-5.1 0-1.6.3-3.2 1-4.7.6-1.5 1.6-2.9 2.8-4.1C6.8 2.7 8.4 1.8 10.2 1c1.7-.6 3.8-1 6.1-1 2.6 0 5 .4 7.2 1.2 2.2.8 4.1 2 5.7 3.4l-2 4zM67.6.5v6.8H54.3v37.6H46V7.3H32.6V.5h35zM81.4 27.5v17.3h-8.3V.5h13.5c3 0 5.6.3 7.8.9 2.2.6 3.9 1.5 5.3 2.6s2.4 2.5 3 4c.6 1.6 1 3.3 1 5.2 0 1.5-.2 2.9-.7 4.2-.4 1.3-1.1 2.5-1.9 3.6-.8 1.1-1.9 2-3.1 2.9-1.2.8-2.6 1.5-4.2 2 1 .6 1.9 1.4 2.7 2.5l11.1 16.4h-7.4c-.7 0-1.3-.1-1.8-.4-.5-.3-.9-.7-1.3-1.2L87.9 29c-.3-.5-.7-.9-1.2-1.1-.4-.2-1-.3-1.9-.3h-3.4zm0-5.9h5.2c1.6 0 2.9-.2 4.1-.6 1.2-.4 2.1-.9 2.9-1.6.7-.7 1.3-1.5 1.7-2.4.4-.9.6-2 .6-3.1 0-2.3-.7-4-2.2-5.2-1.5-1.2-3.8-1.8-6.8-1.8h-5.3v14.7zM141.1.5v6.6h-19.7v12.3h15.5v6.4h-15.5v12.6h19.7V45h-28V.5h28zM187.3 44.9h-6.4c-.7 0-1.3-.2-1.8-.5-.5-.4-.8-.8-1-1.3l-3.3-9.1h-18.4l-3.3 9.1c-.2.5-.5.9-1 1.3s-1.1.6-1.8.6h-6.4L161.3.6h8.4l17.6 44.3zm-28.8-16.8h14.2l-5.4-14.8c-.2-.7-.5-1.4-.8-2.3-.3-.9-.6-1.9-.9-2.9-.3 1-.6 2-.8 2.9-.3.9-.5 1.7-.8 2.4l-5.5 14.7zM215.1 28.5l.9 2.1c.3-.7.6-1.5.9-2.2.3-.7.6-1.4 1-2.1L231 1.8c.2-.3.3-.6.5-.7.2-.2.4-.3.6-.4.2-.1.5-.1.7-.2h7.2v44.4h-7.3V16.2v-1.8c0-.6.1-1.3.1-1.9l-13.4 25.2c-.3.6-.7 1-1.2 1.3-.5.3-1.1.5-1.7.5h-1.1c-.7 0-1.2-.2-1.7-.5s-.9-.8-1.2-1.3l-13.6-25.3c.1.7.1 1.3.2 2v30.5h-7.3V.5h7.2c.3 0 .5.1.7.2.2.1.4.2.6.4.2.2.4.4.5.7l13.3 24.7c.4.6.7 1.3 1 2zM258.3 44.9H250V.5h8.3v44.4zM302.8 22.1L267.6 1c-1.2-.7-2.6.1-2.6 1.5v41c0 1.3 1.4 2.2 2.6 1.5l35.2-20c1.1-.6 1.1-2.2 0-2.9z"/></g></svg>